<?xml version="1.0" encoding="UTF-8" standalone="no"?>
<!-- Created with Inkscape (http://www.inkscape.org/) -->

<svg
   xmlns:dc="http://purl.org/dc/elements/1.1/"
   xmlns:cc="http://creativecommons.org/ns#"
   xmlns:rdf="http://www.w3.org/1999/02/22-rdf-syntax-ns#"
   xmlns:svg="http://www.w3.org/2000/svg"
   xmlns="http://www.w3.org/2000/svg"
   xmlns:sodipodi="http://sodipodi.sourceforge.net/DTD/sodipodi-0.dtd"
   xmlns:inkscape="http://www.inkscape.org/namespaces/inkscape"
   width="1048.36"
   height="744.09448"
   id="svg2"
   version="1.1"
   inkscape:version="0.48.4 r9939"
   inkscape:export-filename="/home/xaviju/Desktop/image_design/django_tits.png"
   inkscape:export-xdpi="90"
   inkscape:export-ydpi="90"
   sodipodi:docname="New document 1">
  <defs
     id="defs4" />
  <sodipodi:namedview
     id="base"
     pagecolor="#ffffff"
     bordercolor="#666666"
     borderopacity="1.0"
     inkscape:pageopacity="0.0"
     inkscape:pageshadow="2"
     inkscape:zoom="2.8"
     inkscape:cx="667.35206"
     inkscape:cy="471.17885"
     inkscape:document-units="px"
     inkscape:current-layer="layer1"
     showgrid="false"
     inkscape:window-width="1920"
     inkscape:window-height="1022"
     inkscape:window-x="0"
     inkscape:window-y="31"
     inkscape:window-maximized="1"
     showguides="false"
     inkscape:guide-bbox="true">
    <sodipodi:guide
       orientation="1,0"
       position="659.88215,475.27677"
       id="guide3954" />
    <sodipodi:guide
       orientation="0,1"
       position="696.42857,441.78571"
       id="guide3977" />
    <sodipodi:guide
       orientation="0,1"
       position="686.42857,465.71429"
       id="guide3979" />
    <sodipodi:guide
       orientation="1,0"
       position="511.78572,483.57143"
       id="guide3981" />
  </sodipodi:namedview>
  <metadata
     id="metadata7">
    <rdf:RDF>
      <cc:Work
         rdf:about="">
        <dc:format>image/svg+xml</dc:format>
        <dc:type
           rdf:resource="http://purl.org/dc/dcmitype/StillImage" />
        <dc:title></dc:title>
      </cc:Work>
    </rdf:RDF>
  </metadata>
  <g
     inkscape:label="Layer 1"
     inkscape:groupmode="layer"
     id="layer1"
     transform="translate(0,-308.26769)">
    <g
       id="g3983"
       inkscape:export-filename="/home/xaviju/Desktop/image_design/django_tits.png"
       inkscape:export-xdpi="90"
       inkscape:export-ydpi="90"
       transform="translate(-8.9285714,3.5714286)">
      <text
         inkscape:export-ydpi="90"
         inkscape:export-xdpi="90"
         inkscape:export-filename="/home/xaviju/Desktop/image_design/django_tits.png"
         sodipodi:linespacing="125%"
         id="text2985"
         y="583.35938"
         x="511.54501"
         style="font-size:60.87168503px;font-style:normal;font-weight:normal;line-height:125%;letter-spacing:0px;word-spacing:0px;fill:#cccccc;fill-opacity:1;stroke:none;font-family:Sans"
         xml:space="preserve"><tspan
           style="font-size:19.33465195px;font-style:normal;font-variant:normal;font-weight:normal;font-stretch:normal;text-align:start;text-anchor:start;fill:#cccccc;font-family:Nimbus Sans L;-inkscape-font-specification:Nimbus Sans L"
           y="583.35938"
           x="511.54501"
           id="tspan2987"
           sodipodi:role="line">Transparent Image </tspan><tspan
           id="tspan3008"
           style="font-size:19.33465195px;font-style:normal;font-variant:normal;font-weight:normal;font-stretch:normal;text-align:start;text-anchor:start;fill:#cccccc;font-family:Nimbus Sans L;-inkscape-font-specification:Nimbus Sans L"
           y="607.52771"
           x="511.54501"
           sodipodi:role="line">Transformation System</tspan></text>
      <g
         inkscape:export-ydpi="90"
         inkscape:export-xdpi="90"
         inkscape:export-filename="/home/xaviju/Desktop/image_design/django_tits.png"
         transform="matrix(2.4558579,0,0,2.4558579,-745.32798,-890.61034)"
         id="text3012"
         style="font-size:33.83113098px;font-style:normal;font-weight:normal;line-height:125%;letter-spacing:0px;word-spacing:0px;fill:#4d4d4d;fill-opacity:1;stroke:none;font-family:Sans">
        <path
           inkscape:connector-curvature="0"
           id="path3877"
           style="font-variant:normal;font-stretch:normal;text-align:end;text-anchor:end;fill:#4d4d4d;font-family:Code Pro Demo;-inkscape-font-specification:Code Pro Demo"
           d="m 515.52641,576.8709 0,-16.81407 5.07467,0 c 5.48064,0 8.25479,4.22889 8.25479,8.42395 0,4.19505 -2.77415,8.39012 -8.25479,8.39012 l -5.07467,0 m -3.41695,-20.23102 0,23.64796 8.49162,0 c 7.74732,0 11.63791,-5.88662 11.63791,-11.80706 0,-5.92044 -3.89059,-11.8409 -11.63791,-11.8409 l -8.49162,0" />
        <path
           inkscape:connector-curvature="0"
           id="path3879"
           style="font-variant:normal;font-stretch:normal;text-align:end;text-anchor:end;fill:#4d4d4d;font-family:Code Pro Demo;-inkscape-font-specification:Code Pro Demo"
           d="m 545.05781,556.63988 -9.81102,0 0,3.38311 6.39408,0 0,10.01402 c 0,4.70252 -4.26273,6.83389 -9.64187,6.83389 l 0,3.41694 c 7.27368,0 13.05881,-3.21396 13.05881,-10.25083 l 0,-13.39713" />
        <path
           inkscape:connector-curvature="0"
           id="path3881"
           style="font-variant:normal;font-stretch:normal;text-align:end;text-anchor:end;fill:#4d4d4d;font-family:Code Pro Demo;-inkscape-font-specification:Code Pro Demo"
           d="m 556.75123,561.74838 2.90948,8.35629 -5.88662,0 2.97714,-8.35629 m 7.07071,18.53946 3.65376,0 -9.50655,-23.98627 -2.5035,0 -9.50655,23.98627 3.68759,0 c 0.74429,-1.9622 1.92838,-4.80402 2.84182,-6.96921 l 8.49161,0 2.84182,6.96921" />
        <path
           inkscape:connector-curvature="0"
           id="path3883"
           style="font-variant:normal;font-stretch:normal;text-align:end;text-anchor:end;fill:#4d4d4d;font-family:Code Pro Demo;-inkscape-font-specification:Code Pro Demo"
           d="m 572.64869,580.28784 0,-16.54342 11.43492,16.54342 2.70649,0 0,-23.68179 -3.38311,0 0,16.67875 -11.53642,-16.67875 -2.63883,-0.0338 0,23.71562 3.41695,0" />
        <path
           inkscape:connector-curvature="0"
           id="path3885"
           style="font-variant:normal;font-stretch:normal;text-align:end;text-anchor:end;fill:#4d4d4d;font-family:Code Pro Demo;-inkscape-font-specification:Code Pro Demo"
           d="m 612.97222,565.09766 c -1.25175,-6.29258 -6.7324,-8.62693 -11.26577,-8.62693 -6.5294,0 -11.6379,5.00701 -11.6379,12.01005 0,6.9692 5.00701,11.97622 11.6379,11.97622 4.29655,0 9.16824,-2.90948 10.79214,-7.44285 l 0,0.0338 c 0.30448,-0.77812 0.47363,-2.09753 0.64279,-4.09357 l -12.75434,0 0,3.41695 8.76226,0 c -1.4209,3.45077 -4.53337,4.80402 -7.44285,4.80402 -4.63486,0 -8.22096,-3.6876 -8.22096,-8.6946 0,-4.97317 3.5861,-8.59311 8.22096,-8.59311 3.01097,0 6.66474,1.38708 7.61201,5.20999 l 3.65376,0" />
        <path
           inkscape:connector-curvature="0"
           id="path3889"
           style="font-variant:normal;font-stretch:normal;text-align:end;text-anchor:end;fill:#4d4d4d;font-family:Code Pro Demo;-inkscape-font-specification:Code Pro Demo"
           d="m 599.68854,610.55642 0,-20.33251 7.13837,0 0,-3.45078 -17.72751,0 0,3.45078 7.1722,0 0,20.33251 3.41694,0" />
        <path
           inkscape:connector-curvature="0"
           id="path3891"
           style="font-variant:normal;font-stretch:normal;text-align:end;text-anchor:end;fill:#4d4d4d;font-family:Code Pro Demo;-inkscape-font-specification:Code Pro Demo"
           d="m 621.609,586.80696 -12.21304,0 0,3.38312 4.39805,0 0,16.8479 -4.39805,0 0,3.41695 12.21304,0 0,-3.41695 -4.39805,0 0,-16.8479 4.39805,0 0,-3.38312" />
        <path
           inkscape:connector-curvature="0"
           id="path3893"
           style="font-variant:normal;font-stretch:normal;text-align:end;text-anchor:end;fill:#4d4d4d;font-family:Code Pro Demo;-inkscape-font-specification:Code Pro Demo"
           d="m 634.77512,610.55642 0,-20.33251 7.13837,0 0,-3.45078 -17.72751,0 0,3.45078 7.1722,0 0,20.33251 3.41694,0" />
        <path
           inkscape:connector-curvature="0"
           id="path3895"
           style="font-variant:normal;font-stretch:normal;text-align:end;text-anchor:end;fill:#4d4d4d;font-family:Code Pro Demo;-inkscape-font-specification:Code Pro Demo"
           d="m 659.35291,592.76124 c -0.60896,-4.33038 -4.39805,-6.22492 -8.05181,-6.22492 -2.74032,0 -5.58213,1.08259 -7.1722,3.14629 -1.01493,1.31941 -1.4209,2.90948 -1.28558,4.49954 l 0,-0.0338 c 0.37214,4.93934 4.70253,5.75129 8.39012,6.12344 2.36818,0.23681 4.80402,0.54129 5.21,2.33434 0.0677,0.30448 0.10149,0.57513 0.10149,0.81195 0,2.43584 -2.77416,3.85675 -5.31149,3.85675 -2.19902,0 -4.87168,-1.15026 -5.1085,-3.34928 l 0,0.13532 -0.0338,-0.50747 -3.45078,0.0677 0.0338,0.64279 c 0.43981,4.22889 4.87169,6.39408 8.52545,6.39408 4.26272,0 8.79609,-2.63883 8.79609,-7.20603 0,-0.47363 -0.0677,-1.04876 -0.16915,-1.55623 -0.91344,-3.78908 -4.93935,-4.63487 -8.18714,-5.04084 -2.53733,-0.23682 -5.20999,-0.5413 -5.37915,-2.97714 -0.0677,-0.81194 0.1015,-1.59006 0.57513,-2.19902 0.94727,-1.21792 2.7065,-1.75922 4.29656,-1.79305 2.06369,-0.0338 4.36421,0.87961 4.83785,3.01097 l 3.38311,-0.13533" />
        <path
           sodipodi:type="arc"
           style="fill:#666666;fill-opacity:0.83137255;stroke:none"
           id="path3020-0"
           sodipodi:cx="459.11432"
           sodipodi:cy="281.94971"
           sodipodi:rx="6.5659914"
           sodipodi:ry="6.5659914"
           d="m 465.68031,281.94971 c 0,3.62629 -2.93969,6.56599 -6.56599,6.56599 -3.6263,0 -6.56599,-2.9397 -6.56599,-6.56599 0,-3.6263 2.93969,-6.56599 6.56599,-6.56599 3.6263,0 6.56599,2.93969 6.56599,6.56599 z"
           transform="matrix(0.31669007,0,0,0.31669007,482.50485,481.3215)" />
        <path
           id="path3887-1"
           style="font-size:33.83113098px;font-style:normal;font-variant:normal;font-weight:normal;font-stretch:normal;text-align:end;line-height:125%;letter-spacing:0px;word-spacing:0px;text-anchor:end;fill:#cccccc;fill-opacity:1;stroke:none;font-family:Code Pro Demo;-inkscape-font-specification:Code Pro Demo"
           d="m 657.09216,568.79075 c 0,2.43583 -0.9811,4.5672 -2.5035,6.12343 -1.59006,1.59006 -3.78909,2.57117 -6.12344,2.57117 -2.33434,0 -4.49954,-0.98111 -6.05577,-2.57117 -1.55623,-1.55623 -2.53733,-3.72143 -2.53733,-6.12343 0,-2.40201 0.9811,-4.56721 2.53733,-6.12344 1.55623,-1.59006 3.72143,-2.57116 6.05577,-2.57116 2.33435,0 4.53338,0.9811 6.12344,2.57116 1.5224,1.55623 2.5035,3.6876 2.5035,6.12344 m -20.67082,0 c 0,3.34927 1.38708,6.36025 3.51844,8.55927 2.16519,2.23285 5.21,3.5861 8.52544,3.5861 3.34928,0 6.36026,-1.35325 8.55928,-3.5861 2.13136,-2.19902 3.51844,-5.21 3.51844,-8.55927 0,-3.34928 -1.38708,-6.36026 -3.51844,-8.55928 -2.19902,-2.19902 -5.21,-3.5861 -8.55928,-3.5861 -3.31544,0 -6.36025,1.38708 -8.52544,3.5861 -2.13136,2.19902 -3.51844,5.21 -3.51844,8.55928"
           inkscape:connector-curvature="0" />
        <path
           sodipodi:type="arc"
           style="font-size:33.83113098px;font-style:normal;font-weight:normal;line-height:125%;letter-spacing:0px;word-spacing:0px;fill:#cccccc;fill-opacity:0.83137255;stroke:none;font-family:Sans"
           id="path3020-0-3"
           sodipodi:cx="459.11432"
           sodipodi:cy="281.94971"
           sodipodi:rx="6.5659914"
           sodipodi:ry="6.5659914"
           d="m 465.68031,281.94971 c 0,3.62629 -2.93969,6.56599 -6.56599,6.56599 -3.6263,0 -6.56599,-2.9397 -6.56599,-6.56599 0,-3.6263 2.93969,-6.56599 6.56599,-6.56599 3.6263,0 6.56599,2.93969 6.56599,6.56599 z"
           transform="matrix(0.31669007,0,0,0.31669007,503.12484,481.6653)" />
        <path
           inkscape:connector-curvature="0"
           id="path3887"
           style="font-variant:normal;font-stretch:normal;text-align:end;text-anchor:end;fill:#4d4d4d;font-family:Code Pro Demo;-inkscape-font-specification:Code Pro Demo"
           d="m 636.47217,568.44695 c 0,2.43583 -0.9811,4.5672 -2.5035,6.12343 -1.59006,1.59006 -3.78909,2.57117 -6.12344,2.57117 -2.33434,0 -4.49954,-0.98111 -6.05577,-2.57117 -1.55623,-1.55623 -2.53733,-3.72143 -2.53733,-6.12343 0,-2.40201 0.9811,-4.56721 2.53733,-6.12344 1.55623,-1.59006 3.72143,-2.57116 6.05577,-2.57116 2.33435,0 4.53338,0.9811 6.12344,2.57116 1.5224,1.55623 2.5035,3.6876 2.5035,6.12344 m -20.67082,0 c 0,3.34927 1.38708,6.36025 3.51844,8.55927 2.16519,2.23285 5.21,3.5861 8.52544,3.5861 3.34928,0 6.36026,-1.35325 8.55928,-3.5861 2.13136,-2.19902 3.51844,-5.21 3.51844,-8.55927 0,-3.34928 -1.38708,-6.36026 -3.51844,-8.55928 -2.19902,-2.19902 -5.21,-3.5861 -8.55928,-3.5861 -3.31544,0 -6.36025,1.38708 -8.52544,3.5861 -2.13136,2.19902 -3.51844,5.21 -3.51844,8.55928" />
      </g>
    </g>
  </g>
</svg>
